<?xml version="1.0" encoding="iso-8859-1"?>
<!-- Generator: Adobe Illustrator 19.0.0, SVG Export Plug-In . SVG Version: 6.00 Build 0)  -->
<svg version="1.1" id="Layer_1" xmlns="http://www.w3.org/2000/svg" xmlns:xlink="http://www.w3.org/1999/xlink" x="0px" y="0px"
	 viewBox="0 0 321.945 321.945" style="enable-background:new 0 0 321.945 321.945;" xml:space="preserve">
<g>
	<g>
		<rect x="4.602" style="fill:#E8E8E8;" width="268.772" height="321.945"/>
		<g>
			<path style="fill:#333E48;" d="M234.445,102.414H43.533c-2.485,0-4.5-2.015-4.5-4.5s2.015-4.5,4.5-4.5h190.912
				c2.485,0,4.5,2.015,4.5,4.5S236.93,102.414,234.445,102.414z"/>
			<path style="fill:#333E48;" d="M206.089,134.76H43.533c-2.485,0-4.5-2.015-4.5-4.5s2.015-4.5,4.5-4.5h162.556
				c2.485,0,4.5,2.015,4.5,4.5S208.574,134.76,206.089,134.76z"/>
			<path style="fill:#333E48;" d="M214.52,70.07H43.533c-2.485,0-4.5-2.015-4.5-4.5s2.015-4.5,4.5-4.5H214.52
				c2.485,0,4.5,2.015,4.5,4.5C219.02,68.056,217.005,70.07,214.52,70.07z"/>
			<path style="fill:#333E48;" d="M234.445,167.104H43.533c-2.485,0-4.5-2.015-4.5-4.5s2.015-4.5,4.5-4.5h190.912
				c2.485,0,4.5,2.015,4.5,4.5S236.93,167.104,234.445,167.104z"/>
			<path style="fill:#333E48;" d="M218.735,199.449H43.533c-2.485,0-4.5-2.015-4.5-4.5s2.015-4.5,4.5-4.5h175.202
				c2.485,0,4.5,2.015,4.5,4.5C223.235,197.435,221.22,199.449,218.735,199.449z"/>
			<path style="fill:#333E48;" d="M234.445,231.793H43.533c-2.485,0-4.5-2.015-4.5-4.5s2.015-4.5,4.5-4.5h190.912
				c2.485,0,4.5,2.015,4.5,4.5S236.93,231.793,234.445,231.793z"/>
			<path style="fill:#333E48;" d="M138.99,264.139H43.533c-2.485,0-4.5-2.015-4.5-4.5s2.015-4.5,4.5-4.5h95.456
				c2.485,0,4.5,2.015,4.5,4.5S141.475,264.139,138.99,264.139z"/>
		</g>
	</g>
	<g>
		<circle style="fill:#1E252B;" cx="136.026" cy="294.643" r="3.74"/>
		<circle style="fill:#61B4E4;" cx="298.47" cy="132.201" r="18.872"/>
		
			<rect x="212.021" y="104.38" transform="matrix(-0.7071 -0.7071 0.7071 -0.7071 252.8946 504.3021)" style="fill:#1E252B;" width="37.742" height="190.79"/>
		
			<rect x="224.302" y="104.38" transform="matrix(-0.7071 -0.7071 0.7071 -0.7071 252.9198 504.3117)" style="fill:#333E48;" width="13.208" height="190.788"/>
		<polygon style="fill:#61B4E4;" points="138.927,297.545 133.123,291.74 150.093,253.89 176.781,280.577 		"/>
	</g>
</g>
<g>
</g>
<g>
</g>
<g>
</g>
<g>
</g>
<g>
</g>
<g>
</g>
<g>
</g>
<g>
</g>
<g>
</g>
<g>
</g>
<g>
</g>
<g>
</g>
<g>
</g>
<g>
</g>
<g>
</g>
</svg>
